<?xml version="1.0" standalone="no"?><!DOCTYPE svg PUBLIC "-//W3C//DTD SVG 1.1//EN" "http://www.w3.org/Graphics/SVG/1.1/DTD/svg11.dtd"><svg t="1749725075766" class="icon" viewBox="0 0 1024 1024" version="1.1" xmlns="http://www.w3.org/2000/svg" p-id="27970" xmlns:xlink="http://www.w3.org/1999/xlink" width="32" height="32"><path d="M127.936 191.936a64 64 0 0 1 64-64h640a64 64 0 0 1 64 64v640a64 64 0 0 1-64 64h-640a64 64 0 0 1-64-64v-640z m704 640v-640h-640v640h640z m-96-480h-448v-64h448v64zM380.416 622.08l99.456-97.6V768h64.64V524.16l101.056 98.56 45.696-44.8L512 403.2 334.656 577.408l45.824 44.672z" fill="#010101" fill-opacity=".9" p-id="27971"></path></svg>